<svg width="32" height="32" viewBox="0 0 32 32" fill="none" xmlns="http://www.w3.org/2000/svg">
<g id="Social media logo">
<path id="Shape" d="M27.5057 9.96281C27.2289 8.93481 26.4184 8.12427 25.3904 7.8475C23.5123 7.3335 15.9999 7.3335 15.9999 7.3335C15.9999 7.3335 8.48763 7.3335 6.60954 7.82773C5.60131 8.1045 4.771 8.93481 4.49423 9.96281C4 11.8409 4 15.7354 4 15.7354C4 15.7354 4 19.6498 4.49423 21.5081C4.771 22.5361 5.58154 23.3466 6.60954 23.6234C8.50739 24.1374 15.9999 24.1374 15.9999 24.1374C15.9999 24.1374 23.5123 24.1374 25.3904 23.6431C26.4184 23.3664 27.2289 22.5558 27.5057 21.5278C27.9999 19.6498 27.9999 15.7552 27.9999 15.7552C27.9999 15.7552 28.0197 11.8409 27.5057 9.96281Z" fill="#C7C7C7"/>
<path id="Vector" d="M13.6079 19.196L19.855 15.598L13.6079 12V19.196Z" fill="#111111"/>
</g>
</svg>
